PathFileType	4	(X/Y/Z)	/Users/itak/Documents/Research/Walk-IL/dataset/trc/00569_00009.trc
DataRate	CameraRate	NumFrames	NumMarkers	Units	OrigDataRate	OrigDataStartFrame	OrigNumFrames
100.000000	100.000000	4	53	mm	100.000000	280	561
Frame#	Time	RPSI			LPSI			L3			STRN			T10			C7			CLAV			RBAK			LBAK			LSHO			LUPA			LAEL			LAOL			LWTS			LWPS			LFRA			LIFD			LHPS			LHTS			RSHO			RUPA			RAEL			RAOL			RWTS			RWPS			RFRA			RIFD			RHTS			RHPS			RBHD			LFHD			RFHD			LBHD			LHIP			RHIP			RASI			LASI			LKNE			LTHI			LANK			LTIP			LTOE			LMT1			LMT5			LHEE			RKNE			RTHI			RANK			RTIP			RTOE			RMT1			RMT5			RHEE			
		X1	Y1	Z1	X2	Y2	Z2	X3	Y3	Z3	X4	Y4	Z4	X5	Y5	Z5	X6	Y6	Z6	X7	Y7	Z7	X8	Y8	Z8	X9	Y9	Z9	X10	Y10	Z10	X11	Y11	Z11	X12	Y12	Z12	X13	Y13	Z13	X14	Y14	Z14	X15	Y15	Z15	X16	Y16	Z16	X17	Y17	Z17	X18	Y18	Z18	X19	Y19	Z19	X20	Y20	Z20	X21	Y21	Z21	X22	Y22	Z22	X23	Y23	Z23	X24	Y24	Z24	X25	Y25	Z25	X26	Y26	Z26	X27	Y27	Z27	X28	Y28	Z28	X29	Y29	Z29	X30	Y30	Z30	X31	Y31	Z31	X32	Y32	Z32	X33	Y33	Z33	X34	Y34	Z34	X35	Y35	Z35	X36	Y36	Z36	X37	Y37	Z37	X38	Y38	Z38	X39	Y39	Z39	X40	Y40	Z40	X41	Y41	Z41	X42	Y42	Z42	X43	Y43	Z43	X44	Y44	Z44	X45	Y45	Z45	X46	Y46	Z46	X47	Y47	Z47	X48	Y48	Z48	X49	Y49	Z49	X50	Y50	Z50	X51	Y51	Z51	X52	Y52	Z52	X53	Y53	Z53	

281	2.8	-222.7217407226562	995.52734375	-48.16631698608398	-139.4463958740234	1011.642211914062	-150.6681365966797	-175.3905639648438	1105.494873046875	-94.61007690429688	16.57419586181641	1286.104248046875	50.34347534179688	-182.6847686767578	1231.304809570312	-94.90926361083984	-146.6183166503906	1503.484985351562	-38.4970817565918	1.799826979637146	1396.869384765625	45.37968063354492	-254.0946502685547	1376.840698242188	-17.66136932373047	-123.4104461669922	1457.91064453125	-136.3289642333984	3.982981443405151	1481.9951171875	-148.3210754394531	39.93425750732422	1363.210205078125	-230.8667144775391	75.07841491699219	1146.791259765625	-264.2015380859375	-25.37785911560059	1133.9375	-268.7832641601562	141.9750213623047	902.9131469726562	-190.8993530273438	145.4395599365234	887.144287109375	-276.5521850585938	103.1855926513672	1062.18505859375	-264.23291015625	144.3228149414062	734.08056640625	-209.4282531738281	151.1853942871094	826.692626953125	-270.4631958007812	170.3959350585938	827.2267456054688	-204.8967437744141	-187.7429809570312	1456.131103515625	118.4453811645508	-242.2499084472656	1390.228271484375	160.3630981445312	-276.5927124023438	1101.480834960938	185.2831268310547	-302.6097412109375	1085.226196289062	129.5621490478516	-149.182861328125	881.2607421875	241.0709686279297	-226.3558654785156	860.6201782226562	261.7422180175781	-274.3086547851562	1046.014282226562	197.1329803466797	-143.1266326904297	708.0850219726562	246.7364501953125	-137.8853759765625	789.5098876953125	270.6286926269531	-211.7343444824219	786.5648193359375	271.0792846679688	-109.3716659545898	1678.481201171875	74.04069519042969	98.07205200195312	1679.905883789062	87.45234680175781	-14.83600997924805	1672.758544921875	177.3782501220703	24.37992668151855	1683.923095703125	-23.90771102905273	50.16740798950195	948.0453491210938	-175.5940246582031	-195.7074279785156	920.8507690429688	123.0612869262695	-95.03462219238281	961.44287109375	132.9308013916016	74.30282592773438	970.5953369140625	-84.74309539794922	96.31159210205078	507.9668579101562	-81.44744110107422	93.89760589599609	673.4432373046875	-121.1320648193359	39.87345504760742	26.66230010986328	-142.8492279052734	58.60114288330078	256.9096069335938	-131.530029296875	152.8494567871094	43.05867004394531	45.01317977905273	76.40313720703125	47.88274765014648	20.85710334777832	138.8018951416016	33.07489395141602	-68.81048583984375	-48.36838531494141	31.6475658416748	-148.2779388427734	-68.58174133300781	493.3009948730469	164.2024536132812	-136.8892669677734	776.7551879882812	156.1656951904297	-341.45263671875	191.2619018554688	-78.61922454833984	-117.6300430297852	368.7787170410156	105.2477340698242	-174.83642578125	58.54520416259766	-39.67839050292969	-202.1763916015625	95.34853363037109	-99.64168548583984	-264.4853210449219	105.6075134277344	-17.26410675048828	-351.850341796875	224.9692840576172	-146.3061676025391	
282	2.81	-216.7597198486328	996.2313232421875	-45.85258865356445	-132.5435180664062	1012.357727050781	-147.6401672363281	-168.9120635986328	1106.433959960938	-92.43921661376953	22.03395462036133	1286.351196289062	55.54043579101562	-175.2970428466797	1232.22802734375	-92.76372528076172	-138.9785766601562	1504.281860351562	-35.44303512573242	7.649995803833008	1397.137817382812	50.6437873840332	-247.2197113037109	1377.94970703125	-16.63810157775879	-114.2076644897461	1458.878051757812	-133.1385345458984	13.31109523773193	1482.72802734375	-142.7074584960938	51.10910034179688	1364.3056640625	-224.8163757324219	88.26824188232422	1148.13330078125	-257.7681884765625	-12.00118541717529	1134.731201171875	-264.8887329101562	155.0462036132812	904.8178100585938	-182.7786712646484	160.6857604980469	889.0089721679688	-268.3456420898438	116.9119338989258	1063.6982421875	-257.10009765625	159.3565979003906	736.0645751953125	-201.0548095703125	166.83203125	828.5888061523438	-262.0373229980469	184.4978179931641	829.4147338867188	-196.0626068115234	-182.8668365478516	1456.875854492188	120.6553573608398	-238.2531890869141	1391.086181640625	161.5620269775391	-273.4049682617188	1102.40625	186.0015106201172	-298.5336608886719	1085.934204101562	129.9634552001953	-145.1623382568359	883.667724609375	244.7169036865234	-222.4833374023438	862.3002319335938	264.0914611816406	-271.0154418945312	1046.97314453125	198.0594635009766	-137.2077178955078	710.7726440429688	251.7763519287109	-133.3917388916016	792.3338623046875	275.2332153320312	-207.1823120117188	788.517822265625	274.2568054199219	-102.9897689819336	1678.914306640625	78.16944122314453	104.2342529296875	1679.877197265625	94.46559906005859	-9.920257568359375	1672.798461914062	182.7625732421875	32.12381362915039	1684.245971679688	-17.88469123840332	57.00654602050781	948.364990234375	-171.2841796875	-190.9259185791016	922.2100219726562	126.0285720825195	-90.26068115234375	962.6983032226562	136.1244354248047	80.78502655029297	970.8511352539062	-80.34311676025391	98.44343566894531	507.3253173828125	-80.2314453125	97.87677764892578	673.0997314453125	-118.5107192993164	39.77018356323242	26.78010368347168	-142.6960296630859	59.51772308349609	256.7149658203125	-131.0286102294922	152.8743286132812	42.74902725219727	45.2238655090332	76.40885162353516	47.7402229309082	21.00400924682617	138.8199920654297	33.10836029052734	-68.78785705566406	-48.43477630615234	31.74957847595215	-148.1479797363281	-57.90334701538086	496.4541625976562	172.7173919677734	-130.9064025878906	778.9266357421875	160.9818725585938	-321.6005249023438	184.5779418945312	-68.97742462158203	-103.722297668457	369.996826171875	114.6004486083984	-150.9646911621094	58.9299430847168	-25.96376609802246	-178.6579895019531	93.68645477294922	-86.91734313964844	-242.5664978027344	102.5401000976562	-5.635273456573486	-332.533935546875	217.0873718261719	-137.2742767333984	
283	2.82	-210.8742065429688	996.8600463867188	-43.36188125610352	-125.7430572509766	1012.941650390625	-144.5151977539062	-162.5752868652344	1107.278442382812	-90.14411926269531	27.42295455932617	1286.494140625	60.73319244384766	-167.9422607421875	1233.033325195312	-90.46529388427734	-131.4403533935547	1504.964599609375	-32.30992889404297	13.40850925445557	1397.315673828125	55.91891479492188	-240.3954467773438	1378.9384765625	-15.48259449005127	-105.1416778564453	1459.701293945312	-129.8232879638672	22.44819831848145	1483.3310546875	-137.0466918945312	62.09454345703125	1365.266845703125	-218.6587524414062	101.3717346191406	1149.367919921875	-251.1303405761719	1.340689301490784	1135.37109375	-260.7368774414062	168.0838928222656	906.6243896484375	-174.4264221191406	175.8953094482422	890.8087158203125	-259.8760681152344	130.5722808837891	1065.134643554688	-249.7420043945312	174.2737426757812	737.9634399414062	-192.4573516845703	182.40673828125	830.4296264648438	-253.3417358398438	198.4981994628906	831.4884033203125	-186.9984283447266	-178.0236511230469	1457.5302734375	122.9325714111328	-234.2395477294922	1391.840942382812	162.8219909667969	-270.2179870605469	1103.221557617188	186.6653900146484	-294.4573974609375	1086.541870117188	130.3183441162109	-141.1694488525391	885.9794311523438	248.28125	-218.5982666015625	863.8685302734375	266.3504943847656	-267.7145690917969	1047.823120117188	198.9187469482422	-131.3698272705078	713.3938598632812	256.6658020019531	-128.9482116699219	795.0494995117188	279.7077331542969	-202.6278991699219	790.3583374023438	277.3010559082031	-96.69342041015625	1679.258544921875	82.30464172363281	110.2601089477539	1679.747314453125	101.4915237426758	-5.126203536987305	1672.739379882812	188.1422119140625	39.76081085205078	1684.471069335938	-11.82696723937988	63.65372467041016	948.55908203125	-167.0106201171875	-186.1343688964844	923.4903564453125	129.0965728759766	-85.4591064453125	963.8084716796875	139.3020172119141	87.18859100341797	971.0067138671875	-75.98497009277344	100.5770797729492	506.6553039550781	-79.04853820800781	101.7851791381836	672.6863403320312	-115.9690856933594	39.66452407836914	26.91223907470703	-142.5360870361328	60.43348693847656	256.5038757324219	-130.5118103027344	152.8955841064453	42.45087432861328	45.44402313232422	76.42328643798828	47.60174942016602	21.14754295349121	138.8339691162109	33.14726638793945	-68.76376342773438	-48.50946807861328	31.86897087097168	-148.0131988525391	-47.76606750488281	499.5571899414062	181.1735534667969	-125.0672454833984	781.0435180664062	165.8857116699219	-301.3115234375	177.0563201904297	-58.85306930541992	-90.16770935058594	371.04638671875	124.0650634765625	-126.9261703491211	58.96256256103516	-10.98510074615479	-154.7179870605469	91.48487091064453	-73.04290771484375	-220.4453430175781	99.05466461181641	6.90202522277832	-312.5946960449219	208.102783203125	-127.8515319824219	
284	2.83	-205.0567474365234	997.4087524414062	-40.70891189575195	-119.0319595336914	1013.40087890625	-141.2916412353516	-156.3656311035156	1108.026733398438	-87.71891784667969	32.75946807861328	1286.531494140625	65.92144775390625	-160.6251983642578	1233.724487304688	-88.00033569335938	-123.9988632202148	1505.531860351562	-29.091064453125	19.09003448486328	1397.399658203125	61.20560455322266	-233.6094512939453	1379.799194335938	-14.18158531188965	-96.22734069824219	1460.37841796875	-126.3663482666016	31.39517784118652	1483.80126953125	-131.3443908691406	72.87876129150391	1366.087890625	-212.4018859863281	114.3701934814453	1150.492431640625	-244.2890319824219	14.63168716430664	1135.85302734375	-256.3161315917969	181.0736846923828	908.3326416015625	-165.8512573242188	191.0382080078125	892.5362548828125	-251.1501770019531	144.1471557617188	1066.491455078125	-242.1656494140625	189.0746612548828	739.772705078125	-183.6323394775391	197.8858337402344	832.2091064453125	-244.3828430175781	212.3925323486328	833.4521484375	-177.7131500244141	-173.2025604248047	1458.087036132812	125.2921981811523	-230.191162109375	1392.483520507812	164.1639862060547	-267.0157470703125	1103.921752929688	187.2990112304688	-290.3718566894531	1087.046142578125	130.6540679931641	-137.2064208984375	888.1659545898438	251.7545928955078	-214.6990814208984	865.301513671875	268.5191040039062	-264.3927307128906	1048.555297851562	199.7326049804688	-125.6252059936523	715.9074096679688	261.3683166503906	-124.558837890625	797.6206665039062	284.029541015625	-198.0782470703125	792.056884765625	280.2019348144531	-90.48599243164062	1679.510986328125	86.44326019287109	116.1492614746094	1679.530883789062	108.5231552124023	-0.4522592425346375	1672.593994140625	193.5129089355469	47.28696823120117	1684.599731445312	-5.742161273956299	70.12945556640625	948.6329345703125	-162.7619018554688	-181.3443756103516	924.6737060546875	132.2490692138672	-80.64562225341797	964.7587890625	142.4593811035156	93.52417755126953	971.0630493164062	-71.64527893066406	102.7157287597656	505.9567565917969	-77.88185119628906	105.6373977661133	672.2119750976562	-113.4842147827148	39.55870819091797	27.05905151367188	-142.3722991943359	61.34383773803711	256.2752075195312	-129.9741973876953	152.9114532470703	42.1718864440918	45.67004776000977	76.44384002685547	47.46516036987305	21.28902816772461	138.8407135009766	33.19113922119141	-68.73667907714844	-48.59041213989258	32.00468063354492	-147.8788146972656	-38.19417953491211	502.5800476074219	189.5551452636719	-119.3761367797852	783.0859985351562	170.8747253417969	-280.5976867675781	168.861572265625	-48.22792434692383	-77.02934265136719	371.9590148925781	133.6438751220703	-102.9090576171875	58.72616577148438	5.310995578765869	-130.4870147705078	88.82909393310547	-57.96260070800781	-198.2451629638672	95.30890655517578	20.39155769348145	-291.9857788085938	198.1563720703125	-118.0102920532227	
